HIERARCHY
ROOT Hips
{
    OFFSET   0.000000   0.000000   0.000000
    CHANNELS 6 Xposition Yposition Zposition Zrotation Xrotation Yrotation
    JOINT Chest
    {
        OFFSET   0.000000   8.007230   0.000000
        CHANNELS 3 Zrotation Xrotation Yrotation
        JOINT Chest2
        {
            OFFSET   0.000000  22.077100   0.000000
            CHANNELS 3 Zrotation Xrotation Yrotation
            JOINT Neck
            {
                OFFSET   0.000000  23.255100   0.000000
                CHANNELS 3 Zrotation Xrotation Yrotation
                JOINT Head
                {
                    OFFSET   0.000000  14.370100   1.956600
                    CHANNELS 3 Zrotation Xrotation Yrotation
                    End Site
                    {
                        OFFSET   0.000000  19.566000   0.000000
                    }
                }
            }
            JOINT LeftCollar
            {
                OFFSET   3.911900  19.017000  -0.467063
                CHANNELS 3 Zrotation Xrotation Yrotation
                JOINT LeftShoulder
                {
                    OFFSET  10.383700   0.000000   0.000000
                    CHANNELS 3 Zrotation Xrotation Yrotation
                    JOINT LeftElbow
                    {
                        OFFSET  26.662100   0.001193   0.000980
                        CHANNELS 3 Zrotation Xrotation Yrotation
                        JOINT LeftWrist
                        {
                            OFFSET  28.869000  -0.000059  -0.000082
                            CHANNELS 3 Zrotation Xrotation Yrotation
                            JOINT LeftFinger0
                            {
                                OFFSET   2.044650  -2.323450   3.252850
                                CHANNELS 3 Zrotation Xrotation Yrotation
                                JOINT LeftFinger01
                                {
                                    OFFSET   3.088130   0.000000   0.000000
                                    CHANNELS 3 Zrotation Xrotation Yrotation
                                    JOINT LeftFinger02
                                    {
                                        OFFSET   2.639460   0.000000   0.000000
                                        CHANNELS 3 Zrotation Xrotation Yrotation
                                        End Site
                                        {
                                            OFFSET   2.582190   0.000000   0.000000
                                        }
                                    }
                                }
                            }
                            JOINT LeftFinger1
                            {
                                OFFSET   8.364480   0.000000   3.252850
                                CHANNELS 3 Zrotation Xrotation Yrotation
                                JOINT LeftFinger11
                                {
                                    OFFSET   4.646930   0.000000   0.000000
                                    CHANNELS 3 Zrotation Xrotation Yrotation
                                    JOINT LeftFinger12
                                    {
                                        OFFSET   2.323470   0.000000   0.000000
                                        CHANNELS 3 Zrotation Xrotation Yrotation
                                        End Site
                                        {
                                            OFFSET   2.273050   0.000000   0.000000
                                        }
                                    }
                                }
                            }
                            JOINT LeftFinger2
                            {
                                OFFSET   8.364490   0.000016   1.078090
                                CHANNELS 3 Zrotation Xrotation Yrotation
                                JOINT LeftFinger21
                                {
                                    OFFSET   5.111610   0.000000   0.000000
                                    CHANNELS 3 Zrotation Xrotation Yrotation
                                    JOINT LeftFinger22
                                    {
                                        OFFSET   2.788150   0.000016   0.000000
                                        CHANNELS 3 Zrotation Xrotation Yrotation
                                        End Site
                                        {
                                            OFFSET   2.727660   0.000000   0.000000
                                        }
                                    }
                                }
                            }
                            JOINT LeftFinger3
                            {
                                OFFSET   7.899780   0.000015  -1.078090
                                CHANNELS 3 Zrotation Xrotation Yrotation
                                JOINT LeftFinger31
                                {
                                    OFFSET   4.646930   0.000000   0.000000
                                    CHANNELS 3 Zrotation Xrotation Yrotation
                                    JOINT LeftFinger32
                                    {
                                        OFFSET   2.323470   0.000000   0.000000
                                        CHANNELS 3 Zrotation Xrotation Yrotation
                                        End Site
                                        {
                                            OFFSET   2.273050   0.000000   0.000000
                                        }
                                    }
                                }
                            }
                            JOINT LeftFinger4
                            {
                                OFFSET   7.435090   0.000000  -3.252850
                                CHANNELS 3 Zrotation Xrotation Yrotation
                                JOINT LeftFinger41
                                {
                                    OFFSET   3.717550   0.000000   0.000000
                                    CHANNELS 3 Zrotation Xrotation Yrotation
                                    JOINT LeftFinger42
                                    {
                                        OFFSET   1.858770   0.000000   0.000000
                                        CHANNELS 3 Zrotation Xrotation Yrotation
                                        End Site
                                        {
                                            OFFSET   1.818440   0.000000   0.000000
                                        }
                                    }
                                }
                            }
                        }
                    }
                }
            }
            JOINT RightCollar
            {
                OFFSET  -3.911910  19.017000  -0.467062
                CHANNELS 3 Zrotation Xrotation Yrotation
                JOINT RightShoulder
                {
                    OFFSET -10.383700   0.000014   0.000000
                    CHANNELS 3 Zrotation Xrotation Yrotation
                    JOINT RightElbow
                    {
                        OFFSET -26.662100   0.001225   0.001091
                        CHANNELS 3 Zrotation Xrotation Yrotation
                        JOINT RightWrist
                        {
                            OFFSET -28.869000  -0.000020  -0.000085
                            CHANNELS 3 Zrotation Xrotation Yrotation
                            JOINT RightFinger0
                            {
                                OFFSET  -2.044650  -2.323490   3.252850
                                CHANNELS 3 Zrotation Xrotation Yrotation
                                JOINT RightFinger01
                                {
                                    OFFSET  -3.088130   0.000000   0.000000
                                    CHANNELS 3 Zrotation Xrotation Yrotation
                                    JOINT RightFinger02
                                    {
                                        OFFSET  -2.639460   0.000000   0.000000
                                        CHANNELS 3 Zrotation Xrotation Yrotation
                                        End Site
                                        {
                                            OFFSET  -2.582190   0.000000   0.000000
                                        }
                                    }
                                }
                            }
                            JOINT RightFinger1
                            {
                                OFFSET  -8.364480   0.000000   3.252850
                                CHANNELS 3 Zrotation Xrotation Yrotation
                                JOINT RightFinger11
                                {
                                    OFFSET  -4.646930   0.000000   0.000000
                                    CHANNELS 3 Zrotation Xrotation Yrotation
                                    JOINT RightFinger12
                                    {
                                        OFFSET  -2.323470   0.000000   0.000000
                                        CHANNELS 3 Zrotation Xrotation Yrotation
                                        End Site
                                        {
                                            OFFSET  -2.273050   0.000000   0.000000
                                        }
                                    }
                                }
                            }
                            JOINT RightFinger2
                            {
                                OFFSET  -8.364480   0.000000   1.078090
                                CHANNELS 3 Zrotation Xrotation Yrotation
                                JOINT RightFinger21
                                {
                                    OFFSET  -5.111620   0.000000   0.000000
                                    CHANNELS 3 Zrotation Xrotation Yrotation
                                    JOINT RightFinger22
                                    {
                                        OFFSET  -2.788160   0.000000   0.000000
                                        CHANNELS 3 Zrotation Xrotation Yrotation
                                        End Site
                                        {
                                            OFFSET  -2.727660   0.000000   0.000000
                                        }
                                    }
                                }
                            }
                            JOINT RightFinger3
                            {
                                OFFSET  -7.899780   0.000000  -1.078090
                                CHANNELS 3 Zrotation Xrotation Yrotation
                                JOINT RightFinger31
                                {
                                    OFFSET  -4.646930   0.000000   0.000000
                                    CHANNELS 3 Zrotation Xrotation Yrotation
                                    JOINT RightFinger32
                                    {
                                        OFFSET  -2.323470   0.000000   0.000000
                                        CHANNELS 3 Zrotation Xrotation Yrotation
                                        End Site
                                        {
                                            OFFSET  -2.273050   0.000000   0.000000
                                        }
                                    }
                                }
                            }
                            JOINT RightFinger4
                            {
                                OFFSET  -7.435090   0.000000  -3.252850
                                CHANNELS 3 Zrotation Xrotation Yrotation
                                JOINT RightFinger41
                                {
                                    OFFSET  -3.717550   0.000000   0.000000
                                    CHANNELS 3 Zrotation Xrotation Yrotation
                                    JOINT RightFinger42
                                    {
                                        OFFSET  -1.858760   0.000000   0.000000
                                        CHANNELS 3 Zrotation Xrotation Yrotation
                                        End Site
                                        {
                                            OFFSET  -1.818440   0.000000   0.000000
                                        }
                                    }
                                }
                            }
                        }
                    }
                }
            }
        }
    }
    JOINT LeftHip
    {
        OFFSET   9.783030   0.000000   0.000000
        CHANNELS 3 Zrotation Xrotation Yrotation
        JOINT LeftKnee
        {
            OFFSET   0.000063 -41.789100   0.000608
            CHANNELS 3 Zrotation Xrotation Yrotation
            JOINT LeftAnkle
            {
                OFFSET   0.000048 -41.133200  -0.000184
                CHANNELS 3 Zrotation Xrotation Yrotation
                JOINT LeftToe
                {
                    OFFSET   0.000000  -6.358960  14.674500
                    CHANNELS 3 Zrotation Xrotation Yrotation
                    End Site
                    {
                        OFFSET   0.000000   0.000000   3.913200
                    }
                }
            }
        }
    }
    JOINT RightHip
    {
        OFFSET  -9.783030   0.000000   0.000000
        CHANNELS 3 Zrotation Xrotation Yrotation
        JOINT RightKnee
        {
            OFFSET   0.000071 -41.789100   0.001239
            CHANNELS 3 Zrotation Xrotation Yrotation
            JOINT RightAnkle
            {
                OFFSET   0.000037 -41.133200  -0.000166
                CHANNELS 3 Zrotation Xrotation Yrotation
                JOINT RightToe
                {
                    OFFSET   0.000000  -6.358960  14.674500
                    CHANNELS 3 Zrotation Xrotation Yrotation
                    End Site
                    {
                        OFFSET   0.000000   0.000000   3.913200
                    }
                }
            }
        }
    }
}
MOTION
Frames: 5
Frame Time:   0.016667
  0.048114  90.045000   3.086450  -1.566920  -5.744150  -3.034220  -0.196636   5.495600  -0.510269  -0.346229  10.992700  -1.008490   2.155440  -1.434660   0.048165   3.547660  -2.894300   9.754840  -4.785940  -2.848180   6.722070 -70.547100  22.072900  -1.364100  -4.050590  -5.300480 -19.436200  15.634100  -4.411300  10.980400  47.105100  41.024400 -80.756300 -25.025000   0.003398   0.001645  -7.512490   0.009857  -0.001051 -36.222600   5.868330  -7.963090 -29.970400   0.007946   0.005525 -20.979300   0.006108   0.005361 -31.550900  -2.601560   4.240290 -47.470400   0.004935   0.009485 -31.614500  -0.000147   0.007127 -30.000900  -2.486700   4.309070 -45.149300   0.007170   0.003356 -30.069400   0.001596   0.005168 -45.352100  -3.545630   3.487420 -68.189600   0.006427   0.013976 -45.414300  -0.011939   0.004377  11.630300   1.158790  10.875200  65.411900  14.504400   0.523572   2.692370  -8.298180  13.716600 -24.476200 -12.556600  -5.684460 -34.129600  26.980400  71.829000   9.480510  -0.000667  -0.002962  -0.259749  -0.004693   0.000514  41.669000  -0.757250  -0.850739  34.097300  -0.000535  -0.000392  24.225300   0.009898   0.000058  30.716400  -3.721730  -6.245850  46.378800  -0.001576  -0.004510  30.888300  -0.001114  -0.002707  33.683600  -5.207830  -7.750710  51.055300  -0.001440   0.000676  34.002800   0.006851  -0.005395  47.294200 -11.749500 -10.644500  72.588800  -0.003862  -0.005902  48.344100   0.000658  -0.009879   1.075600   7.064280   2.954100  -0.103054   1.331570  12.923400  -4.180090  -5.137130   7.511180  -0.000000   0.000000   0.000000   2.077710   6.677320  -9.603380  -0.095637   1.971090  -7.108430  -9.565340   0.164230   2.847920   0.000000   0.000000   0.000000
  0.048182  90.044900   3.086250  -1.568870  -5.747710  -3.042630  -0.194470   5.497880  -0.505352  -0.342329  10.997200  -0.998794   2.151280  -1.436430   0.048176   3.540720  -2.899020   9.758690  -4.798000  -2.872070   6.684360 -70.570200  22.081800  -1.364190  -4.027710  -5.308920 -19.423900  15.636900  -4.409650  10.977100  47.100400  41.004300 -80.712200 -25.024900   0.003383   0.001643  -7.512440   0.009855  -0.001061 -36.210900   5.868400  -7.958060 -29.961000   0.007936   0.005508 -20.972800   0.006101   0.005347 -31.545200  -2.604470   4.241030 -47.463500   0.004929   0.009473 -31.614700  -0.000143   0.007117 -30.000500  -2.489380   4.309820 -45.141300   0.007163   0.003349 -30.064200   0.001594   0.005152 -45.345100  -3.546050   3.491350 -68.179700   0.006434   0.013971 -45.407700  -0.011941   0.004372  11.672600   1.075760  10.913400  65.438300  14.515400   0.449309   2.704620  -8.391480  13.677700 -24.432500 -12.476600  -5.644160 -34.138300  27.001800  71.850600   9.478360  -0.000588  -0.003092  -0.260832  -0.004721   0.000438  41.665400  -0.751772  -0.844416  34.094300  -0.000559  -0.000398  24.222500   0.009880   0.000077  30.732600  -3.721700  -6.241010  46.403000  -0.001602  -0.004516  30.904400  -0.001132  -0.002689  33.722500  -5.207950  -7.741450  51.113100  -0.001544   0.000702  34.041300   0.006845  -0.005374  47.377700 -11.735300 -10.600700  72.705800  -0.004022  -0.005885  48.422000   0.000658  -0.009857   1.075230   7.072460   2.954100  -0.104591   1.337130  12.923400  -4.178260  -5.146980   7.516780   0.000000   0.000000   0.000000   2.081360   6.677050  -9.603600  -0.093861   1.990060  -7.096670  -9.569640   0.153225   2.847630  -0.000000   0.000000  -0.000000
  0.048249  90.044800   3.086050  -1.572950  -5.757020  -3.058750  -0.189300   5.504770  -0.498044  -0.332574  11.011000  -0.984573   2.143220  -1.440290   0.048203   3.527320  -2.908350   9.777310  -4.820640  -2.919110   6.622640 -70.612100  22.110500  -1.364530  -4.021890  -5.365480 -19.413200  15.657900  -4.397770  10.973600  47.063100  40.967100 -80.649200 -25.024800   0.003331   0.001627  -7.512380   0.009850  -0.001079 -36.199300   5.868470  -7.953020 -29.951700   0.007909   0.005465 -20.966200   0.006081   0.005311 -31.539000  -2.611730   4.246190 -47.453700   0.004911   0.009441 -31.615100  -0.000133   0.007093 -29.999700  -2.496170   4.315060 -45.131500   0.007147   0.003330 -30.057500   0.001588   0.005113 -45.335000  -3.549080   3.501210 -68.165300   0.006451   0.013959 -45.398100  -0.011945   0.004358  11.724200   0.943905  10.971300  65.469200  14.547300   0.375074   2.725110  -8.560160  13.641600 -24.293800 -12.396500  -5.603890 -34.147000  27.023200  71.872300   9.476200  -0.000453  -0.003276  -0.261915  -0.004781   0.000314  41.639200  -0.746294  -0.838094  34.073100  -0.000598  -0.000414  24.203000   0.009835   0.000113  30.748900  -3.721570  -6.236170  46.427200  -0.001645  -0.004530  30.920500  -0.001161  -0.002648  33.761400  -5.208060  -7.732190  51.170800  -0.001736   0.000762  34.079700   0.006833  -0.005325  47.461200 -11.721100 -10.556900  72.822800  -0.004318  -0.005850  48.500000   0.000660  -0.009811   1.074810   7.087620   2.954150  -0.108030   1.349090  12.923500  -4.174800  -5.165040   7.526240  -0.000000   0.000000  -0.000000   2.087770   6.676780  -9.603830  -0.092083   2.019490  -7.077920  -9.576920   0.134109   2.847340   0.000000   0.000000   0.000000
  0.048178  90.044700   3.089320  -1.577660  -5.769100  -3.074770  -0.181726   5.516190  -0.493400  -0.317661  11.033800  -0.976154   2.134020  -1.445310   0.048242   3.512210  -2.918910   9.814230  -4.847190  -2.976030   6.564210 -70.652300  22.165900  -1.367480  -4.092960  -5.549270 -19.425700  15.728100  -4.319270  10.975600  47.003500  40.931500 -80.619300 -25.025900   0.003232   0.001559  -7.512930   0.009842  -0.001100 -36.244300   5.883580  -7.960160 -29.989700   0.007862   0.005395 -20.992800   0.006049   0.005257 -31.538000  -2.626140   4.268530 -47.448600   0.004882   0.009389 -31.615600  -0.000119   0.007054 -29.997400  -2.509930   4.337750 -45.129400   0.007122   0.003295 -30.055700   0.001579   0.005056 -45.329500  -3.566890   3.520990 -68.158400   0.006475   0.013943 -45.393500  -0.011949   0.004337  11.735300   0.846476  11.005500  65.477400  14.618600   0.381385   2.759450  -8.759810  13.649400 -24.079500 -12.420100  -5.632390 -34.053600  26.744800  71.671800   9.632550  -0.000304  -0.003361  -0.183733  -0.004868   0.000200  41.549100  -0.762270  -0.857778  34.001300  -0.000636  -0.000440  24.137000   0.009770   0.000160  30.657000  -3.721170  -6.261520  46.290500  -0.001688  -0.004550  30.829500  -0.001191  -0.002591  33.644200  -5.202920  -7.758970  50.996200  -0.001988   0.000847  33.963400   0.006816  -0.005253  47.286000 -11.750200 -10.647100  72.577900  -0.004703  -0.005801  48.336900   0.000663  -0.009748   1.077680   7.100690   2.954240  -0.112946   1.363730  12.926600  -4.169930  -5.182670   7.534570   0.000000   0.000000   0.000000   2.095180   6.685260  -9.602920  -0.093180   2.036730  -7.063820  -9.583190   0.117382   2.847420   0.000000   0.000000   0.000000
  0.048015  90.044600   3.095790  -1.583920  -5.790180  -3.095970  -0.172598   5.532410  -0.491154  -0.299392  11.066100  -0.972319   2.124140  -1.451330   0.048291   3.496010  -2.931150   9.872980  -4.870480  -3.033340   6.529940 -70.694700  22.232500  -1.374480  -4.200480  -5.801070 -19.479000  15.818600  -4.196110  10.991000  46.948200  40.888600 -80.604600 -25.027000   0.003105   0.001471  -7.513470   0.009832  -0.001127 -36.314900   5.911190  -7.976470 -30.049800   0.007801   0.005308 -21.034800   0.006009   0.005189 -31.538200  -2.636220   4.286460 -47.446500   0.004845   0.009323 -31.616100  -0.000095   0.007005 -29.995800  -2.519570   4.355960 -45.129100   0.007094   0.003254 -30.055500   0.001567   0.004984 -45.325800  -3.582100   3.534860 -68.154100   0.006507   0.013923 -45.390600  -0.011954   0.004310  11.728500   0.767979  11.032500  65.471800  14.671500   0.424814   2.747670  -8.903920  13.657800 -23.749800 -12.584900  -5.832070 -33.803800  26.020000  71.109700   9.935420  -0.000213  -0.003392  -0.032287  -0.004959   0.000133  41.435200  -0.852502  -0.963229  33.910900  -0.000658  -0.000474  24.053900   0.009695   0.000190  30.510000  -3.720640  -6.302420  46.071700  -0.001714  -0.004573  30.683800  -0.001210  -0.002530  33.465600  -5.195280  -7.800010  50.730200  -0.002151   0.000943  33.786300   0.006800  -0.005174  47.002800 -11.797400 -10.793500  72.182300  -0.004952  -0.005752  48.073400   0.000667  -0.009685   1.082060   7.120170   2.954410  -0.118595   1.382630  12.937200  -4.163590  -5.202730   7.542140   0.000000   0.000000  -0.000000   2.103960   6.705780  -9.598300  -0.096205   2.054740  -7.052590  -9.589250   0.099336   2.848010  -0.000000   0.000000   0.000000
